<?xml version="1.0" standalone="no"?><!DOCTYPE svg PUBLIC "-//W3C//DTD SVG 1.1//EN" "http://www.w3.org/Graphics/SVG/1.1/DTD/svg11.dtd"><svg t="1493439178044" class="icon" style="" viewBox="0 0 1024 1024" version="1.1" xmlns="http://www.w3.org/2000/svg" p-id="4525" xmlns:xlink="http://www.w3.org/1999/xlink" width="16" height="16"><defs><style type="text/css"></style></defs><path d="M291.465995 928.564232c-49.007557 0-95.435768-19.345088-130.256927-54.166247-34.821159-34.821159-54.166247-81.24937-54.166247-130.256927s19.345088-95.435768 54.166247-130.256927l176.685139-176.685139c34.821159-34.821159 81.24937-54.166247 130.256927-54.166246s95.435768 19.345088 130.256926 54.166246c9.027708 9.027708 16.765743 18.055416 23.214106 27.083124 7.738035 11.607053 5.15869 28.372796-6.448362 36.110831-11.607053 7.738035-28.372796 5.15869-36.110832-6.448363-5.15869-6.448363-10.31738-14.186398-16.765743-19.345088-24.503778-24.503778-58.035264-38.690176-94.146095-38.690176s-69.642317 14.186398-94.146096 38.690176L197.319899 649.994962c-24.503778 24.503778-38.690176 58.035264-38.690176 94.146096s14.186398 68.352645 38.690176 94.146096c24.503778 24.503778 58.035264 38.690176 94.146096 38.690176s68.352645-14.186398 94.146096-38.690176l87.697733-87.697733c10.31738-10.31738 25.793451-10.31738 36.110831 0 10.31738 10.31738 10.31738 25.793451 0 36.110831l-87.697733 87.697733C386.901763 909.219144 340.473552 928.564232 291.465995 928.564232z" fill="" p-id="4526"></path><path d="M557.138539 662.891688c-47.717884 0-94.146096-18.055416-130.256927-54.166247-10.31738-10.31738-19.345088-21.924433-27.083123-33.531486-7.738035-11.607053-3.869018-28.372796 9.027707-36.110832 11.607053-7.738035 28.372796-3.869018 36.110832 9.027708 5.15869 9.027708 11.607053 16.765743 19.345088 24.503779 51.586902 51.586902 136.70529 51.586902 188.292191 0l176.685139-176.685139c51.586902-51.586902 51.586902-136.70529 0-188.292191s-136.70529-51.586902-188.292192 0l-90.277078 88.987405c-10.31738 10.31738-25.793451 10.31738-36.110831 0-10.31738-10.31738-10.31738-25.793451 0-36.110831l87.697733-87.697733c72.221662-72.221662 189.581864-72.221662 260.513854 0 72.221662 72.221662 72.221662 189.581864 0 260.513854L687.395466 608.725441c-36.110831 36.110831-83.828715 54.166247-130.256927 54.166247z" fill="" p-id="4527"></path></svg>