<?xml version="1.0" standalone="no"?><!DOCTYPE svg PUBLIC "-//W3C//DTD SVG 1.1//EN" "http://www.w3.org/Graphics/SVG/1.1/DTD/svg11.dtd"><svg t="1493522729655" class="icon" style="" viewBox="0 0 1024 1024" version="1.1" xmlns="http://www.w3.org/2000/svg" p-id="995" xmlns:xlink="http://www.w3.org/1999/xlink" width="16" height="16"><defs><style type="text/css"></style></defs><path d="M888.650359 186.513928c-16.23066-17.899672-33.750685-34.624589-50.116421-52.408627-5.65786-6.148024-11.174504-8.05035-19.22997-6.993275-70.586638 9.257851-141.236722 18.032702-211.785497 27.558659-6.600325 0.8913-13.921058 4.635577-18.74697 9.29469C453.346135 294.705022 318.097802 425.629887 183.117574 556.830021c-19.680225 19.128663-37.862329 39.799448-57.124022 60.164265 85.452207 88.174202 172.19992 177.684842 259.09499 267.347954 2.391467-1.850138 3.836375-2.762927 5.037736-3.927449 153.791665-149.013849 307.609936-298.000068 461.132472-447.291233 4.786003-4.653997 8.272407-12.172227 9.375531-18.850323 11.604292-70.242807 22.771633-140.561339 33.418111-210.955596C894.855688 198.015889 892.311749 190.550871 888.650359 186.513928zM705.148022 375.49914c-34.524305-0.128937-62.508659-28.015054-62.691831-62.47182-0.185218-34.922371 28.471448-63.602573 63.271022-63.324234 34.549887 0.276293 62.556755 28.249391 62.692854 62.618153C768.559237 347.366406 740.252541 375.630123 705.148022 375.49914z" p-id="996" fill="#515151"></path></svg>