<?xml version="1.0" standalone="no"?><!DOCTYPE svg PUBLIC "-//W3C//DTD SVG 1.1//EN" "http://www.w3.org/Graphics/SVG/1.1/DTD/svg11.dtd"><svg t="1493435530510" class="icon" style="" viewBox="0 0 1024 1024" version="1.1" xmlns="http://www.w3.org/2000/svg" p-id="1463" xmlns:xlink="http://www.w3.org/1999/xlink" width="32" height="32"><defs><style type="text/css"></style></defs><path d="M988.028229 541.376051c7.250124-7.776104 11.69332-18.202571 11.69332-29.673833 0-13.18837-5.871731-24.996301-15.135722-32.980136L544.543695 38.680974c-7.933693-8.367575-19.147082-13.594623-31.587415-13.594623-24.041556 0-43.532469 19.48989-43.532469 43.532469 0 0.895393 0.035816 1.781576 0.089027 2.66469h-0.088004V265.929652H67.809897c-24.041556 0-43.532469 19.488867-43.532469 43.532469v404.483264c0 24.041556 19.490913 43.532469 43.532469 43.532469h401.613914V955.382203c0 24.043602 19.490913 43.532469 43.532469 43.532469 13.551644 0 25.656333-6.194072 33.641191-15.904225l441.634396-441.633373h-0.203638z" fill="#515151" p-id="1464"></path></svg>