<?xml version="1.0" standalone="no"?><!DOCTYPE svg PUBLIC "-//W3C//DTD SVG 1.1//EN" "http://www.w3.org/Graphics/SVG/1.1/DTD/svg11.dtd"><svg t="1493530962299" class="icon" style="" viewBox="0 0 1024 1024" version="1.1" xmlns="http://www.w3.org/2000/svg" p-id="2435" xmlns:xlink="http://www.w3.org/1999/xlink" width="16" height="16"><defs><style type="text/css"></style></defs><path d="M895.83104 204.90752 122.38336 204.90752c-45.68576 0-82.85184 34.43712-82.85184 76.7744l0 460.63616c0 42.3424 37.16096 76.7744 82.85184 76.7744l773.44768 0c45.66016 0 82.85696-34.43712 82.85696-76.7744L978.688 281.68192C978.68288 239.34464 941.44 204.90752 895.83104 204.90752L895.83104 204.90752 895.83104 204.90752zM94.78144 742.31808 94.78144 291.51232l243.98336 226.0224-0.24576 0-243.7376 225.86368L94.78144 742.31808 94.78144 742.31808 94.78144 742.31808zM134.67648 256.09216l748.8256 0L509.12768 602.9824 134.67648 256.09216 134.67648 256.09216 134.67648 256.09216zM377.64608 553.6l131.44576 121.81504 132.05504-122.37824 231.9872 214.92736L146.3552 767.96416 377.64608 553.6 377.64608 553.6 377.64608 553.6zM681.04192 517.5296l-1.59232 0 243.98336-226.0224 0 450.6112L681.04192 517.5296 681.04192 517.5296 681.04192 517.5296zM681.04192 517.5296" p-id="2436"></path></svg>