<?xml version="1.0" standalone="no"?><!DOCTYPE svg PUBLIC "-//W3C//DTD SVG 1.1//EN" "http://www.w3.org/Graphics/SVG/1.1/DTD/svg11.dtd"><svg t="1493210571479" class="icon" style="" viewBox="0 0 1024 1024" version="1.1" xmlns="http://www.w3.org/2000/svg" p-id="6482" xmlns:xlink="http://www.w3.org/1999/xlink" width="16" height="16"><defs><style type="text/css"></style></defs><path d="M359.9 73.1H180c-59.6 0-108 48.3-108 108V361c0 59.6 36.7 109.7 96.2 109.7h192.5c59.7 0 110-50.1 110-109.8V182.7c0-59.6-51.2-109.6-110.8-109.6zM429.5 361s-16.1 68.6-68.8 68.6H168.2c-19.8 0-55-48.8-55-68.6V182.7c0-44.3 29.6-68.6 68.8-68.6h178.7c45.2 0 68.8 26 68.8 68.6V361z m-69.6 192.3H180c-59.6 0-108 48.3-108 107.9v179.9c0 59.6 36.7 109.7 96.2 109.7h192.5c59.7 0 110-50.1 110-109.7V662.8c0-59.6-51.2-109.5-110.8-109.5z m69.6 287.8s-16.1 68.6-68.8 68.6H168.2c-19.8 0-55-48.8-55-68.6V662.8c0-44.3 29.6-68.6 68.8-68.6h178.7c45.2 0 68.8 26 68.8 68.6v178.3z m411.6-287.8H661.3c-59.6 0-108 48.3-108 107.9v179.9c0 59.6 36.7 109.7 96.2 109.7H842c59.7 0 110-50.1 110-109.7V662.8c0-59.6-51.2-109.5-110.9-109.5z m69.7 287.8s-16.1 68.6-68.7 68.6H649.5c-19.8 0-55-48.8-55-68.6V662.8c0-44.3 29.6-68.6 68.8-68.6H842c45.2 0 68.7 26 68.7 68.6v178.3h0.1z" fill="#ffffff" p-id="6483"></path><path d="M947.7 228.2c-2.6-13.5-11.1-22-21.3-21.8h-1.8c-27.2 0-49.3-22-49.3-49.2 0-8.6 4.1-18.4 4.3-18.7 5.2-11.7 1.2-26-9.3-33.3l-51.8-28.8-0.9-0.4c-10.7-4.6-25-1.7-32.9 6.6-5.5 5.7-24.5 21.9-39 21.9-14.6 0-33.7-16.5-39.3-22.3-7.9-8.3-22.1-11.4-33-6.8L620 104.5l-0.8 0.6c-10.5 7.3-14.6 21.7-9.4 33.4 0 0.1 4.3 10 4.3 18.7 0 27.1-22.1 49.2-49.3 49.2h-1.7c-10.1-0.2-18.8 8.3-21.3 21.8 0 0.2-4.3 22.6-4.3 40.5s4.3 40.3 4.3 40.5c2.5 13.3 10.7 21.8 21.3 21.8h1.8c27.2 0 49.3 22 49.3 49.2 0 8.5-4.1 18.3-4.3 18.7-5.2 11.7-1.2 26.1 9.3 33.4l50.7 28.4 0.8 0.4c10.7 4.8 25.2 1.7 33.1-6.9 7-7.6 26-23.3 39.9-23.3 15 0 34.5 17.6 40.1 23.7 5.3 5.9 13.5 9.4 22 9.4 4 0 7.7-0.8 11.1-2.2l52.7-29 0.8-0.5c10.5-7.3 14.5-21.7 9.3-33.4 0-0.1-4.3-10-4.3-18.7 0-27.1 22.1-49.2 49.3-49.2h2.1c10.2 0 18.4-8.5 21-21.9 0.7-3.9 4.3-24 4.3-40.4-0.1-17-4-38.2-4.4-40.5z m-30.2 71.9c-41.4 3.6-73.4 38.3-73.4 80.1 0 11.4 3.5 22.4 5.6 27.9l-43.9 24.2c-2.7-2.8-9-9-17.3-15.1-15.7-11.6-30.8-17.5-44.8-17.5-13.9 0-28.8 5.8-44.4 17.2-8.3 6-14.6 12.2-17.2 14.9l-42.2-23.5c2.2-5.7 5.6-16.5 5.6-27.9 0-41.8-32-76.4-73.4-80.1-1-6.1-3.2-20.4-3.2-31.4 0-10.9 2.1-25.1 3.2-31.4 41.4-3.6 73.4-38.3 73.4-80.1 0-11.4-3.5-22.4-5.6-27.9l45-24.7c2.5 2.5 8.9 8.5 17.2 14.5 15.4 10.9 30.1 16.5 43.7 16.5 13.5 0 28-5.4 43.3-16.2 9-6.3 15.6-12.7 17.2-14.2l43.3 24c-2 5.5-5.6 16.5-5.6 27.9 0 41.8 32 76.4 73.4 80.1 1.1 6.3 3.2 20.4 3.2 31.4 0.1 10.9-2.1 25.2-3.1 31.3zM743.8 194.4c-40.9 0-74.2 33.2-74.2 74s33.3 74 74.2 74c40.9 0 74.2-33.2 74.2-74s-33.3-74-74.2-74z m0 116.8c-23.6 0-42.9-19.2-42.9-42.7 0-23.6 19.2-42.8 42.9-42.8 23.6 0 42.9 19.2 42.9 42.8 0 23.5-19.2 42.7-42.9 42.7z" fill="#ffffff" p-id="6484"></path></svg>