<?xml version="1.0" standalone="no"?><!DOCTYPE svg PUBLIC "-//W3C//DTD SVG 1.1//EN" "http://www.w3.org/Graphics/SVG/1.1/DTD/svg11.dtd"><svg t="1493207987701" class="icon" style="" viewBox="0 0 1024 1024" version="1.1" xmlns="http://www.w3.org/2000/svg" p-id="4750" xmlns:xlink="http://www.w3.org/1999/xlink" width="32" height="32"><defs><style type="text/css"></style></defs><path d="M800 480l-576 0c-19.2 0-32 12.8-32 32 0 19.2 12.8 32 32 32l576 0c19.2 0 32-12.8 32-32C832 492.8 819.2 480 800 480L800 480zM800 736l-576 0c-19.2 0-32 12.8-32 32 0 19.2 12.8 32 32 32l576 0c19.2 0 32-12.8 32-32C832 748.8 819.2 736 800 736L800 736zM224 288l576 0c19.2 0 32-12.8 32-32 0-19.2-12.8-32-32-32l-576 0c-19.2 0-32 12.8-32 32C192 275.2 204.8 288 224 288L224 288z" p-id="4751" fill="#707070"></path></svg>